<?xml version="1.0" encoding="utf-8"?>
<!DOCTYPE svg PUBLIC "-//W3C//DTD SVG 1.1//EN" "http://www.w3.org/Graphics/SVG/1.1/DTD/svg11.dtd">

<svg width="156.3" height="219.9" viewBox="0 0 156.3 219.9" xmlns="http://www.w3.org/2000/svg"><g id="svgGroup" stroke-linecap="round" fill-rule="evenodd" font-size="9pt" stroke="#000" stroke-width="0.25mm" fill="#000" style="stroke:#000;stroke-width:0.25mm;fill:#000"><path d="M 26.1 219.9 L 0 219.9 L 0 0 L 28.2 0 L 108.6 138.6 L 132.3 183.9 L 133.8 183.9 A 1393.208 1393.208 0 0 1 131.719 158.306 A 1581.241 1581.241 0 0 1 131.1 149.4 A 527.987 527.987 0 0 1 129.9 114.434 A 485.13 485.13 0 0 1 129.9 114.3 L 129.9 0 L 156.3 0 L 156.3 219.9 L 127.8 219.9 L 47.7 81 L 24 36 L 22.8 36 Q 23.7 52.5 24.9 69.75 Q 26.1 87 26.1 104.4 L 26.1 219.9 Z" vector-effect="non-scaling-stroke"/></g></svg>
